<svg width="799" height="799" fill="none" xmlns="http://www.w3.org/2000/svg"><circle cx="399" cy="399.41" r="399" fill="#E6ECF2"/><path d="M360.536 455.276l49.622 78.395c8.134 12.883-1.096 29.695-16.358 29.695H259.922a19.48 19.48 0 01-16.358-8.955l-56.293-88.993c-8.133-12.883 1.097-29.695 16.358-29.695h133.97a19.48 19.48 0 0116.358 8.954l6.579 10.599z" fill="#3552FF"/><path d="M287.063 460.118s5.209-8.68 15.17-1.279l55.836 50.253s5.301 7.493-5.483 8.406h-73.839s-15.9.823-12.062-10.964l20.378-46.416z" fill="#fff"/><path d="M615.682 250.882l120.902 190.962c19.831 31.34-2.65 72.273-39.752 72.273H370.497c-16.175 0-31.162-8.223-39.752-21.928L193.486 275.461c-19.831-31.34 2.65-72.273 39.752-72.273h326.334c16.175 0 31.162 8.223 39.753 21.928l16.357 25.766z" fill="#fff"/><path d="M517.718 362.444l-21.75-34.354-2.924-4.66c-1.736-2.741-4.752-4.386-8.042-4.386h-58.669c-3.564 0-6.671 1.827-8.316 4.934-1.736 3.106-1.553 6.67.275 9.685l24.673 39.015c1.737 2.741 4.752 4.385 8.042 4.385h58.578c3.564 0 6.671-1.827 8.316-4.933 1.827-3.016 1.736-6.67-.183-9.686z" fill="#3552FF"/><path d="M654.612 262.852s4.935-1.736 11.149 0c6.123 1.736 8.225 5.939 8.682 12.152.457 6.304-4.844 14.619-17.272 11.604 0 0-19.099 2.558-23.943 11.969-4.843 9.32-4.843 10.873-4.843 10.873s-3.655 14.162 1.645 21.198c0 0-21.567 3.015-25.039 10.964 0 0-12.155-4.02-16.541-5.299-4.387-1.28-9.961-7.767-14.073-12.244-4.204-4.477-11.88-11.421-11.972-13.797-.091-2.375.64-6.213 3.473-6.852 2.833-.731 8.59-.366 14.621 6.67 6.032 7.035 9.961 8.954 10.236 7.675.182-1.371-8.134-11.239-15.719-17.178-7.585-5.939-18.733-14.71-20.378-16.629-1.645-1.919.731-7.218 3.107-8.315 2.376-1.096 5.94-1.918 12.428 2.833a364.43 364.43 0 0111.606 8.863s8.773-7.219 18.551-1.371c0 0 3.929-3.106 9.321-.914l.731-3.654s-9.047-8.132-8.681-11.239c.365-3.106 15.261-13.614 15.261-13.614l3.107-23.299s4.935 14.071 17.546 22.294c12.519 8.132 16.997 7.31 16.997 7.31zm-234.219 94.202s-7.493 4.751-4.934 13.066c0 0-7.402 4.203-4.021 16.629 3.381 12.335 7.767 22.568 16.175 30.883 8.407 8.314 21.201 15.075 22.115 18.091 0 0 6.671-7.31 17.272-15.168 10.6-7.949 18.733-11.786 18.733-11.786s-16.175-25.949-19.19-32.985c-3.016-7.035-7.859-17.268-14.896-15.35-7.128 1.828-5.849 9.503-3.655 15.259 2.101 5.756 8.133 16.995 1.827 18.183-6.305 1.279-10.874-10.691-10.874-10.691s-2.376-.913-7.403-9.685c-5.026-8.771-10.966-15.715-10.966-15.715v-.731h-.183z" fill="#fff"/><path d="M627.014 213.33c11.515-10.965 27.233-7.219 35.732-3.838 8.498 3.381 14.987 5.939 18.551 10.508 0 0 13.616 4.568 20.196 8.588 6.579 4.021 11.24 12.427 9.229 23.848-2.01 11.421-9.229 21.472-9.229 21.472s-3.473 6.669 1.279 9.867c4.752 3.198 17.82 11.878 18.734 32.254.822 20.375-12.703 31.522-26.867 31.979-14.073.457-31.802-4.477-32.807-7.218 0 0-18.734 8.497-30.249-6.579-11.514-15.167.092-37.096 7.037-40.75 6.945-3.655 14.347-3.381 14.347-3.381s4.295-4.112 6.58-10.69c1.371-3.838-2.285-10.965-7.311-13.249-3.381-1.553-7.493-1.827-7.493-1.827s-16.084-3.929-24.4-25.401c0 0-4.843-14.619 6.671-25.583z" fill="#3552FF"/><path d="M709.808 342.983s8.316 7.583 13.525 25.949c0 0 20.745 36.639 28.421 58.385 7.676 21.746 20.744 52.263 9.047 72.912-11.697 20.65-32.898 18.914-37.559 17.452 0 0-1.828 15.441-.457 32.162 1.371 16.721 5.3 41.938 5.3 41.938H562.497s3.929-17.36 4.934-24.304c1.097-7.035 2.468-19.005 2.468-19.005s-14.165 9.137-43.865-5.116c-29.7-14.163-56.75-56.649-62.873-67.431-6.122-10.781-18.002-34.994-18.002-34.994s27.324-29.513 52.454-37.736l46.607 51.715s12.519-27.685 21.749-48.243c9.23-20.558 21.658-50.893 35.183-61.491 13.525-10.599 18.917-13.249 28.878-14.437 0 0 5.666 10.873 15.352 12.335 9.687 1.462 16.541-2.193 16.541-2.193s15.444 7.949 28.329 7.401 19.556-5.299 19.556-5.299zM522.744 98.478l21.75 34.355c3.564 5.665-.457 12.975-7.128 12.975h-58.669a8.353 8.353 0 01-7.128-3.929l-24.674-39.015c-3.564-5.665.457-12.974 7.128-12.974h58.669a8.354 8.354 0 017.128 3.928l2.924 4.66z" fill="#1A1A1A"/><path d="M282.494 193.137l57.847 91.369c9.504 14.985-1.28 34.538-19.008 34.538H165.156c-7.676 0-14.895-3.929-19.008-10.508L80.534 204.832c-9.504-14.984 1.28-34.537 19.008-34.537h156.085c7.676 0 14.896 3.929 19.008 10.507l7.859 12.335z" fill="#3552FF"/><path d="M554.089 283.045s-3.655 5.847 4.478 9.593l4.569-1.461s-9.687-6.945-9.047-8.132z" fill="#CCC"/><path d="M97.44 185.279h207.992l-13.708-20.741s-3.29-4.294-12.885-6.944c-9.596-2.558-161.568.092-161.568.092s-23.76 2.375-19.83 27.593z" fill="#1A1A1A"/><path d="M280.849 175.229c-2.558 2.101-7.036.913-9.961-2.65-3.015-3.563-3.29-8.223-.822-10.325 2.559-2.101 7.036-.913 9.961 2.65 3.015 3.655 3.381 8.223.822 10.325z" fill="#3A3A3A"/><path d="M257.272 175.229c-2.559 2.101-7.037.913-9.961-2.65-3.016-3.563-3.29-8.223-.822-10.325 2.558-2.101 7.036-.913 9.961 2.65 3.015 3.655 3.381 8.223.822 10.325zm-22.937 0c-2.559 2.101-7.037.913-9.961-2.65-3.016-3.563-3.29-8.223-.823-10.325 2.559-2.101 7.037-.913 9.961 2.65 3.016 3.655 3.381 8.223.823 10.325zm392.679 38.1c-11.514 10.965-6.671 25.675-6.671 25.675 8.316 21.472 24.4 25.401 24.4 25.401s1.279.091 3.015.365c-6.122-4.751-17.82-16.812-13.616-35.816 3.381-15.35 13.434-20.284 20.836-21.838-8.499-2.01-19.374-2.01-27.964 6.213zm21.018 129.837c-27.415-16.173-8.041-46.782 2.102-52.995-2.741.274-7.219 1.005-11.606 3.29-6.945 3.654-18.551 25.583-7.036 40.75 4.935 6.396 11.149 8.589 16.54 8.955z" fill="#fff"/><path d="M515.799 537.234s28.055 21.654 54.1 11.147c0 0 16.175-6.67 21.567-12.883 0 0-8.865-22.751-36.737-22.02-27.781.639-35.183 15.441-38.93 23.756z" fill="#3552FF"/><path d="M554.181 552.127c-42.403 0-86.267-56.101-110.027-110.74-.183-.365-.092-.822.182-1.187.092-.092 9.139-11.878 23.303-21.472 18.826-12.792 29.061-16.629 29.426-16.812.457-.183.914-.092 1.28.274.548.548 55.013 55.278 71.828 88.902.274.548.091 1.279-.548 1.554-.64.274-1.28.091-1.554-.549-15.718-31.431-65.066-81.867-70.823-87.806-2.65 1.097-12.428 5.483-28.238 16.264-12.154 8.223-20.47 18.091-22.389 20.467 24.765 56.375 70.732 114.12 113.591 108.272 45.601-6.213 64.883-65.237 85.353-141.713a1.175 1.175 0 011.463-.823c.639.183 1.005.823.822 1.462-20.744 77.299-40.301 136.963-87.364 143.45-2.01.274-4.203.457-6.305.457z" fill="#000"/><path d="M544.86 457.103c-.183 0-.366 0-.457-.092-.64-.274-.823-1.005-.64-1.553 5.118-11.421 9.87-22.659 14.439-33.532 20.927-49.705 37.376-88.994 70.64-91.918.64-.091 1.279.457 1.279 1.096.092.64-.457 1.188-1.096 1.28-31.893 2.832-48.069 41.481-68.721 90.455-4.57 10.873-9.322 22.112-14.439 33.533-.183.457-.549.731-1.005.731zm-59.127-47.969c-.365 0-.731-.183-.913-.457-.092-.091-1.645-2.01-9.23-13.248-3.107-4.569-5.575-8.863-7.494-13.066-.914-2.01-1.736-4.021-2.559-6.122-1.188-2.924-2.376-5.939-3.838-8.68-.457-.822-.914-1.645-1.462-2.467-1.096-1.645-2.102-2.65-3.107-3.381-1.371-.913-3.198-1.005-5.026-.365-1.919.731-3.473 2.284-4.112 4.111-.914 2.833.182 6.305 1.188 9.32a42.909 42.909 0 001.919 4.751c.731 1.828 1.462 3.655 2.102 5.482.091.183.182.457.274.731.822 2.01 2.741 6.762-3.656 9.777-5.026 2.375-8.407-4.294-10.692-8.68-.457-.914-.914-1.828-1.279-2.467-.366-.548-.183-1.279.365-1.645.549-.365 1.28-.183 1.645.366.457.639.914 1.553 1.371 2.558 2.376 4.568 4.844 8.954 7.494 7.675 4.295-2.101 3.289-4.66 2.467-6.761-.091-.274-.274-.64-.274-.823-.64-1.827-1.371-3.563-2.102-5.39-.64-1.645-1.371-3.29-1.919-4.934-1.188-3.381-2.285-7.219-1.188-10.782.822-2.558 2.833-4.568 5.483-5.574 2.467-.913 5.026-.73 7.037.549 1.736 1.096 3.015 2.741 3.838 4.02.548.822 1.096 1.736 1.645 2.65 1.553 2.832 2.833 5.939 4.021 8.863.822 2.01 1.645 4.02 2.558 6.03 1.92 4.112 4.296 8.223 7.311 12.7 7.494 11.056 9.047 12.975 9.139 13.066.365.548.365 1.279-.183 1.645-.274.457-.548.548-.823.548zm-68.903-35.36c-.457 0-.823-.183-1.006-.639-.091-.183-2.467-4.66-1.096-10.325.822-3.472 2.467-5.391 5.391-6.305.64-.182 1.28.183 1.463.823a1.174 1.174 0 01-.823 1.462c-1.828.548-3.107 1.461-3.747 4.568-1.096 4.751.914 8.589.914 8.68.274.548.092 1.279-.457 1.645-.274.091-.457.091-.639.091z" fill="#000"/><path d="M431.634 399.175c-.366 0-.731-.183-.914-.457-8.042-10.507-14.896-25.401-14.987-25.583-.274-.64 0-1.279.548-1.554.64-.274 1.28 0 1.554.549.091.182 6.854 14.893 14.713 25.126.365.548.274 1.279-.183 1.645-.183.183-.457.274-.731.274z" fill="#000"/><path d="M449.728 436.91c-.366 0-.64-.091-.914-.365-2.467-2.741-4.478-3.838-6.854-5.208-3.015-1.736-6.488-3.655-11.788-9.137-10.235-10.416-18.094-26.863-20.47-37.644-2.742-12.335 5.94-15.076 6.031-15.076a1.173 1.173 0 011.462.822 1.173 1.173 0 01-.822 1.462c-.275.091-6.671 2.193-4.387 12.243 2.376 10.508 9.961 26.406 19.831 36.548 5.117 5.208 8.407 7.036 11.331 8.68 2.468 1.371 4.752 2.65 7.494 5.665.457.457.365 1.279-.092 1.645-.274.274-.548.365-.822.365zm197.117-144.912c-1.645 0-3.29-.274-4.935-.913-2.742-1.005-5.026-2.833-6.671-5.208-.366-.548-.274-1.279.274-1.645.548-.365 1.279-.274 1.645.274 1.371 2.01 3.29 3.472 5.574 4.295 6.032 2.284 12.886-.823 15.17-6.853 2.285-6.031-.822-12.883-6.854-15.167-3.838-1.462-8.041-.823-11.24 1.644-.548.366-1.279.274-1.645-.183-.365-.548-.274-1.279.183-1.644 3.929-3.015 8.956-3.746 13.525-2.01 7.311 2.741 10.966 10.873 8.224 18.182-2.101 5.756-7.493 9.228-13.25 9.228z" fill="#000"/><path d="M647.85 285.694c-.366 0-.731-.182-1.005-.457l-6.306-8.588a1.497 1.497 0 01-.183-1.097c.092-.365.457-.639.823-.731l10.692-3.106a1.173 1.173 0 011.462.822 1.173 1.173 0 01-.823 1.462l-9.047 2.65 5.301 7.218c.365.548.274 1.279-.275 1.645-.182.091-.365.182-.639.182zm-20.653 25.583c-7.037-.639-11.971-3.197-14.804-7.675-5.209-8.314-1.006-19.918-.823-20.375l9.504-38.832c.183-.639.823-1.005 1.462-.914.64.183 1.006.823.914 1.462l-9.504 38.924c-.091.274-4.021 11.147.549 18.456 2.376 3.746 6.762 6.031 12.885 6.579a1.28 1.28 0 011.096 1.279 1.28 1.28 0 01-1.279 1.096z" fill="#000"/><path d="M611.296 278.019c-.457 0-.914-.091-1.371-.183-2.741-.731-4.295-3.563-3.564-6.304l5.94-21.015c.366-1.279 1.188-2.376 2.468-3.107a5.307 5.307 0 013.929-.456c1.371.365 2.285 1.005 2.833 2.01.549.913.64 2.101.183 3.472a1.173 1.173 0 01-1.462.822 1.174 1.174 0 01-.823-1.462c.183-.731.183-1.279 0-1.644-.182-.366-.639-.64-1.37-.823-1.371-.365-3.016.457-3.382 1.919l-5.94 21.015c-.365 1.462.457 3.015 1.919 3.381a2.801 2.801 0 002.102-.275c.64-.365 1.097-.913 1.28-1.644a1.174 1.174 0 011.462-.823c.64.183 1.005.823.822 1.462-.365 1.28-1.188 2.376-2.467 3.107a6.46 6.46 0 01-2.559.548zm-48.8 314.859c-.091 0-.274 0-.365-.092-.64-.182-.914-.913-.731-1.462 2.193-6.487 5.94-28.872 7.402-41.847a1.281 1.281 0 011.279-1.096 1.28 1.28 0 011.097 1.279c-1.279 11.969-5.026 35.086-7.494 42.304-.182.548-.731.914-1.188.914zm167.874-72.73c-4.934 0-7.859-1.553-8.133-1.645-.548-.274-.822-1.005-.457-1.644.274-.549 1.005-.823 1.645-.457.64.274 15.17 7.675 34.818-14.528 17.82-20.192-8.134-83.877-35.823-132.303-.366-.548-.091-1.279.457-1.644.548-.274 1.279-.092 1.645.457 10.143 17.817 59.583 107.815 35.457 135.043-12.246 13.706-22.846 16.721-29.609 16.721z" fill="#000"/><path d="M728.086 592.878c-.549 0-1.006-.366-1.188-.914-.092-.457-9.048-41.39-4.57-85.887 9.504-93.197 5.575-143.084-12.702-161.906a1.158 1.158 0 010-1.645 1.158 1.158 0 011.645 0c19.099 19.644 23.12 68.618 13.342 163.825-4.478 44.132 4.386 84.699 4.478 85.156.183.64-.274 1.28-.914 1.462.091-.091 0-.091-.091-.091zM614.221 249.695c-.366 0-.823-.183-1.006-.549l-14.256-22.568c-8.407-13.34-22.937-21.289-38.655-21.289h-56.933a1.21 1.21 0 01-1.188-1.188 1.21 1.21 0 011.188-1.187h56.933c16.54 0 31.802 8.406 40.666 22.385l14.256 22.568c.365.548.183 1.279-.366 1.645-.182.091-.457.183-.639.183zm-175.459-44.406H330.471a1.21 1.21 0 01-1.188-1.188 1.21 1.21 0 011.188-1.187h108.291c.64 0 1.188.548 1.188 1.187a1.21 1.21 0 01-1.188 1.188zm52.089 310.016H371.686c-16.632 0-31.802-8.406-40.666-22.385L221.449 319.775c-.365-.548-.182-1.279.366-1.645.548-.365 1.279-.183 1.645.366L333.03 491.64c8.407 13.34 22.938 21.289 38.656 21.289h119.165c.64 0 1.188.549 1.188 1.188a1.21 1.21 0 01-1.188 1.188zM341.163 307.623H185.078c-8.224 0-15.718-4.112-20.013-11.056L99.359 192.863c-4.66-7.401-4.934-16.446-.73-24.121 4.203-7.675 11.971-12.244 20.744-12.244h156.085c8.133 0 15.626 4.112 20.013 11.056l7.768 12.335 57.846 91.369c4.661 7.401 4.935 16.446.731 24.121-4.112 7.584-11.88 12.244-20.653 12.244zm-221.79-148.749c-7.859 0-14.896 4.111-18.734 11.055-3.838 6.944-3.564 15.076.64 21.746l65.614 103.704c3.929 6.214 10.692 9.96 18.002 9.96H340.98c7.859 0 14.896-4.112 18.734-11.056 3.838-6.944 3.564-15.076-.639-21.746L293.46 168.833c-3.929-6.213-10.692-9.959-18.002-9.959H119.373z" fill="#000"/><path d="M201.436 475.56c-.365 0-.822-.183-1.005-.549l-14.165-22.476c-4.021-6.396-4.295-14.163-.639-20.741 3.655-6.579 10.326-10.599 17.911-10.599h84.348c.64 0 1.188.548 1.188 1.188a1.21 1.21 0 01-1.188 1.187h-84.348c-6.671 0-12.611 3.472-15.81 9.32-3.198 5.848-3.015 12.7.549 18.365l14.164 22.477c.366.548.183 1.279-.365 1.645-.183.183-.366.183-.64.183zm191.451 75.105H259.556c-7.036 0-13.524-3.563-17.271-9.502l-11.606-18.365c-.366-.549-.183-1.28.365-1.645.549-.365 1.28-.183 1.645.365l11.606 18.366c3.29 5.299 9.047 8.406 15.261 8.406h133.331c6.671 0 12.611-3.472 15.809-9.32 3.199-5.848 3.016-12.7-.548-18.365l-3.747-5.848c-.365-.548-.183-1.279.366-1.644.548-.366 1.279-.183 1.645.365l3.746 5.848c4.021 6.395 4.295 14.162.64 20.74-3.655 6.67-10.326 10.599-17.911 10.599zm123.186-391.791h-58.669c-3.29 0-6.397-1.645-8.133-4.477l-24.674-39.015c-1.919-3.015-2.01-6.67-.274-9.777 1.736-3.106 4.843-5.025 8.499-5.025h58.669c3.29 0 6.397 1.645 8.133 4.477l2.924 4.66 21.658 34.355c1.919 3.015 2.011 6.67.275 9.776-1.645 3.107-4.844 5.026-8.408 5.026zm-83.343-55.918c-2.65 0-5.117 1.37-6.396 3.746-1.28 2.375-1.188 5.117.182 7.401l24.674 39.014c1.371 2.102 3.655 3.381 6.123 3.381h58.669c2.741 0 5.117-1.37 6.397-3.746 1.279-2.376 1.188-5.117-.183-7.401l-24.674-39.015c-1.371-2.101-3.655-3.38-6.123-3.38H432.73z" fill="#000"/><path d="M516.073 158.874h-58.669c-3.29 0-6.397-1.645-8.133-4.477l-24.674-39.015c-1.919-3.015-2.01-6.67-.274-9.777 1.736-3.106 4.843-5.025 8.499-5.025h58.669c3.29 0 6.397 1.645 8.133 4.477l2.924 4.66 21.658 34.355c1.919 3.015 2.011 6.67.275 9.776-1.645 3.107-4.844 5.026-8.408 5.026zm-83.343-55.918c-2.65 0-5.117 1.37-6.396 3.746-1.28 2.375-1.188 5.117.182 7.401l24.674 39.014c1.371 2.102 3.655 3.381 6.123 3.381h58.669c2.741 0 5.117-1.37 6.397-3.746 1.279-2.376 1.188-5.117-.183-7.401l-24.674-39.015c-1.371-2.101-3.655-3.38-6.123-3.38H432.73zm18.643 282.148h-8.956c-3.289 0-6.396-1.645-8.133-4.477l-24.674-39.015c-1.919-3.015-2.01-6.67-.274-9.776 1.737-3.107 4.844-5.025 8.499-5.025h58.669c3.29 0 6.397 1.644 8.133 4.477l2.925 4.659c.365.549.182 1.28-.366 1.645-.548.366-1.279.183-1.645-.365l-2.924-4.66c-1.371-2.102-3.656-3.381-6.123-3.381h-58.669c-2.65 0-5.118 1.371-6.397 3.746-1.279 2.376-1.188 5.117.183 7.401l24.674 39.015c1.37 2.101 3.655 3.38 6.122 3.38h8.956c.64 0 1.188.549 1.188 1.188a1.21 1.21 0 01-1.188 1.188z" fill="#000"/><path d="M501.086 385.104h-30.431a1.21 1.21 0 01-1.188-1.188c0-.64.549-1.188 1.188-1.188h30.431c2.742 0 5.118-1.37 6.397-3.746 1.28-2.375 1.188-5.117-.182-7.401l-21.75-34.355c-.366-.548-.183-1.279.366-1.644.548-.366 1.279-.183 1.644.365l21.75 34.355c1.919 3.015 2.01 6.67.274 9.777-1.736 3.197-4.935 5.025-8.499 5.025zm63.056-91.735h-88.735c-5.666 0-10.783-2.832-13.799-7.584l-11.423-19.827c-3.198-5.025-3.381-11.238-.457-16.538 2.924-5.299 8.225-8.497 14.256-8.497h105.001c5.666 0 10.783 2.833 13.799 7.584l11.423 19.736c3.016 4.659 3.381 10.324 1.097 15.441-.274.64-1.005.914-1.554.548-.639-.274-.822-1.005-.548-1.553 2.01-4.386 1.645-9.137-.914-13.249l-11.423-19.735c-2.559-4.021-6.945-6.488-11.789-6.488H463.984c-5.117 0-9.687 2.741-12.245 7.218-2.468 4.569-2.376 9.868.457 14.163l11.423 19.736c2.558 4.02 6.945 6.487 11.788 6.487h88.735a1.21 1.21 0 011.188 1.188c0 .822-.549 1.37-1.188 1.37z" fill="#000"/><path d="M604.534 342.709c-.183 0-.366 0-.457-.092-.092 0-1.737-.731-8.773-2.558-11.697-3.015-16.632-8.954-21.476-14.711l-1.644-1.918c-1.188-1.371-2.742-2.833-4.204-4.203-3.564-3.381-6.945-6.488-6.945-10.234 0-2.01 1.005-3.837 3.015-5.665 1.371-1.279 3.199-1.827 5.026-1.736 5.575.274 11.424 6.396 13.8 8.955 2.193 2.467 4.112 4.294 5.391 5.39-2.01-2.558-6.031-6.67-8.955-9.593l-2.559-2.559c-2.742-2.832-8.042-6.761-12.703-10.233-4.386-3.289-8.224-6.122-9.686-7.858-1.645-1.919-1.645-5.208.182-8.223 1.554-2.558 4.57-4.934 8.408-4.112 5.848 1.371 13.159 7.767 17.089 11.239.639.548 1.096 1.005 1.553 1.279 1.097-1.005 2.742-2.558 5.849-3.107 6.945-1.188 10.875.549 12.337 1.645 1.188-.731 3.655-1.919 6.579-1.371 1.554.275 4.296 1.097 5.758 1.736.639.275.914 1.005.639 1.554-.274.639-1.005.913-1.553.639-1.188-.548-3.838-1.279-5.209-1.553-2.924-.548-5.392 1.371-5.483 1.371-.457.365-1.188.365-1.554-.092 0 0-3.107-2.924-11.057-1.553-2.376.457-3.656 1.553-4.478 2.376-.64.548-1.554 1.461-2.65.73a31.015 31.015 0 01-2.193-1.827c-3.473-3.015-10.784-9.411-16.084-10.69-2.559-.64-4.752 1.096-5.849 3.015-1.188 2.01-1.371 4.294-.457 5.391 1.28 1.462 5.209 4.386 9.322 7.492 4.752 3.564 10.143 7.584 12.976 10.508l2.559 2.558c6.58 6.579 10.6 10.69 10.875 12.974.182 1.28-.64 1.828-.914 1.919-.549.274-2.285 1.097-9.87-7.492-4.386-4.934-8.864-8.041-12.154-8.223-1.371-.092-2.376.274-3.29 1.096-1.462 1.371-2.193 2.65-2.284 3.929 0 2.741 3.015 5.482 6.214 8.497 1.553 1.371 3.107 2.833 4.386 4.386l1.645 1.919c4.844 5.665 9.321 11.055 20.288 13.979 7.31 1.919 8.955 2.65 9.138 2.741.548.274.822 1.005.548 1.554a1.187 1.187 0 01-1.096.731z" fill="#000"/><path d="M596.858 303.146c-.366 0-.731-.183-1.006-.549-3.655-5.573-15.17-14.345-15.261-14.436-.548-.366-.64-1.188-.183-1.645.366-.548 1.188-.639 1.645-.182.457.365 11.972 9.136 15.81 14.984.365.548.183 1.279-.366 1.645-.182.182-.365.183-.639.183zm13.981-6.488c-.274 0-.639-.091-.914-.365-4.295-4.568-10.874-9.411-10.966-9.411-.548-.366-.639-1.096-.274-1.645.366-.548 1.097-.639 1.645-.274.274.183 6.854 5.025 11.332 9.777.457.457.457 1.187-.092 1.644-.182.183-.457.274-.731.274zm186.973 296.22H216.88a1.21 1.21 0 01-1.188-1.188c0-.64.548-1.188 1.188-1.188h580.932c.64 0 1.188.548 1.188 1.188a1.21 1.21 0 01-1.188 1.188zM564.781 256.456h-87.912a1.21 1.21 0 01-1.188-1.188 1.21 1.21 0 011.188-1.187h87.912c.64 0 1.188.548 1.188 1.187a1.21 1.21 0 01-1.188 1.188zm8.864 16.081h-87.912a1.21 1.21 0 01-1.188-1.188 1.21 1.21 0 011.188-1.188h87.912c.64 0 1.188.549 1.188 1.188a1.21 1.21 0 01-1.188 1.188zm-212.743 80.496H272.99a1.21 1.21 0 01-1.188-1.188 1.21 1.21 0 011.188-1.187h87.912c.64 0 1.188.548 1.188 1.187 0 .731-.548 1.188-1.188 1.188zm8.864 16.081h-87.912a1.209 1.209 0 01-1.187-1.187c0-.64.548-1.188 1.187-1.188h87.912c.64 0 1.188.548 1.188 1.188-.091.639-.548 1.187-1.188 1.187zm33.447 54.548h-87.912a1.21 1.21 0 01-1.188-1.188 1.21 1.21 0 011.188-1.188h87.912c.64 0 1.188.549 1.188 1.188 0 .64-.457 1.188-1.188 1.188zm8.865 15.989h-87.912a1.21 1.21 0 01-1.188-1.187c0-.64.548-1.188 1.188-1.188h87.912a1.21 1.21 0 011.188 1.188c0 .731-.549 1.187-1.188 1.187zM291.724 186.467H117.271a1.21 1.21 0 01-1.188-1.188 1.21 1.21 0 011.188-1.187h174.453c.64 0 1.188.548 1.188 1.187a1.21 1.21 0 01-1.188 1.188zm19.099 30.7h-75.118a1.21 1.21 0 01-1.188-1.188 1.21 1.21 0 011.188-1.187h75.118c.64 0 1.188.548 1.188 1.187a1.21 1.21 0 01-1.188 1.188zm15.993 24.487h-75.118a1.21 1.21 0 01-1.188-1.187c0-.64.548-1.188 1.188-1.188h75.118c.64 0 1.188.548 1.188 1.188a1.21 1.21 0 01-1.188 1.187zm14.987 24.487h-75.118a1.21 1.21 0 01-1.188-1.188 1.21 1.21 0 011.188-1.187h75.118a1.21 1.21 0 011.188 1.187c0 .64-.457 1.188-1.188 1.188zm310.159 78.578c-1.645 0-3.381-.183-5.209-.457-10.326-1.736-21.109-9.959-20.653-27.685.549-19.188 16.267-26.771 16.45-26.771.548-.274 1.279 0 1.553.548.274.64 0 1.279-.548 1.553-.64.274-14.622 7.036-15.079 24.67-.548 20.467 14.165 24.578 18.643 25.309 13.708 2.285 18.825-5.573 19.099-5.939.366-.548 1.097-.731 1.645-.365.549.365.731 1.096.366 1.644-.183.366-4.752 7.493-16.267 7.493z" fill="#000"/><path d="M689.795 350.292c-10.874 0-21.292-3.472-26.775-8.954a1.158 1.158 0 010-1.645 1.16 1.16 0 011.645 0c5.209 5.209 15.444 8.498 25.862 8.224 9.412-.183 17.363-3.015 22.023-7.858 5.209-5.574 7.951-14.893 7.494-25.675-.274-6.213-1.645-11.695-4.021-16.264-1.919-3.746-5.118-6.213-8.408-8.862-1.919-1.554-3.929-3.198-5.757-5.117-1.279-1.279-2.65-3.107-2.833-5.299-.182-2.742 1.462-5.665 2.742-8.132.274-.457.457-.914.731-1.371l.914-1.827c1.188-2.376 2.467-4.751 3.381-7.218 2.742-7.036 3.473-13.797 2.376-20.102-2.467-13.888-28.146-19.644-28.329-19.735-.183 0-.366-.183-.549-.275-12.154-10.873-33.629-17.177-48.342-9.137-14.073 7.767-10.509 24.122-10.327 24.853 0 1.005.092 17.726 26.137 27.685.639.274.913.914.731 1.553-.275.64-.914.914-1.554.731-27.781-10.507-27.69-28.873-27.69-29.604 0 0-4.112-18.548 11.606-27.136 15.536-8.589 37.925-2.01 50.81 9.228 3.199.731 27.233 6.761 29.883 21.472 1.188 6.67.366 13.888-2.467 21.38-1.006 2.559-2.285 5.026-3.473 7.493l-.914 1.736c-.183.456-.457.913-.731 1.37-1.188 2.102-2.559 4.751-2.467 6.853.091 1.462 1.188 2.741 2.193 3.837 1.645 1.828 3.655 3.381 5.483 4.843 3.381 2.65 6.854 5.482 9.047 9.685 2.559 4.843 3.93 10.599 4.295 17.177.274 6.67-.365 19.097-8.133 27.411-5.026 5.3-13.616 8.406-23.669 8.589-.365.091-.639.091-.914.091z" fill="#000"/><path d="M280.849 175.229c-2.558 2.101-7.036.913-9.961-2.65-3.015-3.563-3.29-8.223-.822-10.325 2.559-2.101 7.036-.913 9.961 2.65 3.015 3.655 3.381 8.223.822 10.325z" fill="#3552FF"/><path d="M254.257 177.513h-.732c-2.558-.274-5.208-1.736-7.128-4.112-3.381-4.111-3.655-9.411-.639-11.969 3.107-2.558 8.224-1.279 11.606 2.832 1.553 1.919 2.558 4.203 2.741 6.396.183 2.376-.548 4.295-2.102 5.574-1.005.822-2.284 1.279-3.746 1.279zm-4.661-15.076a3.79 3.79 0 00-2.285.731c-2.01 1.645-1.553 5.573 1.006 8.589 1.553 1.827 3.655 3.106 5.574 3.289.731.091 1.828 0 2.742-.731.913-.731 1.37-2.01 1.279-3.563-.091-1.736-.914-3.472-2.193-5.026-1.828-2.101-4.204-3.289-6.123-3.289zm191.542 122.618c-2.65 0-5.666-1.462-7.859-4.112-1.554-1.919-2.559-4.203-2.742-6.396-.182-2.375.549-4.294 2.102-5.573 1.554-1.279 3.655-1.645 5.849-1.005 2.102.548 4.203 1.918 5.757 3.837 1.553 1.919 2.559 4.203 2.741 6.396.183 2.376-.548 4.294-2.101 5.574-1.006.822-2.376 1.279-3.747 1.279zm-4.661-15.076c-.914 0-1.645.274-2.284.731-.914.731-1.371 2.01-1.28 3.563.092 1.736.914 3.472 2.193 5.025 2.559 3.016 6.306 4.203 8.316 2.559.914-.731 1.371-2.01 1.28-3.564-.092-1.736-.914-3.472-2.193-5.025-1.28-1.553-2.925-2.65-4.57-3.106-.548-.092-1.005-.183-1.462-.183zm-96.959-169.216c-6.214 0-13.251-3.472-18.459-9.777-7.951-9.594-8.773-22.02-1.828-27.685 6.945-5.756 19.008-2.65 26.867 6.944 7.95 9.594 8.773 22.02 1.919 27.685-2.376 1.919-5.3 2.833-8.499 2.833zm-11.788-38.01c-2.651 0-5.027.731-6.946 2.376-5.94 4.934-4.934 15.807 2.194 24.395 7.128 8.589 17.637 11.513 23.577 6.67 5.94-4.934 4.935-15.807-2.193-24.395-4.844-5.848-11.241-9.046-16.632-9.046zm69.635 311.112c-2.65 0-5.575-1.461-7.768-4.203-1.553-1.918-2.559-4.203-2.741-6.395-.183-2.376.548-4.295 2.101-5.574 3.108-2.558 8.225-1.279 11.606 2.833 1.554 1.918 2.559 4.203 2.742 6.395.183 2.376-.548 4.295-2.102 5.574a5.987 5.987 0 01-3.838 1.37zm-4.661-15.075c-.914 0-1.645.274-2.284.73-.914.731-1.371 2.011-1.28 3.564.092 1.736.914 3.472 2.193 5.025 2.559 3.015 6.306 4.203 8.316 2.559.914-.731 1.371-2.011 1.28-3.564-.092-1.736-.914-3.472-2.193-5.025-1.737-2.01-4.113-3.289-6.032-3.289zM231.319 177.513c-.64 0-1.371-.092-2.102-.274-2.102-.549-4.113-1.919-5.757-3.838-1.92-2.375-2.925-5.208-2.742-7.766.183-1.736.914-3.198 2.102-4.203 1.553-1.279 3.655-1.645 5.848-1.005 2.102.548 4.204 1.918 5.758 3.837 1.919 2.376 2.924 5.208 2.741 7.767-.183 1.736-.914 3.198-2.102 4.203-1.005.822-2.376 1.279-3.746 1.279zm-4.752-15.076a3.79 3.79 0 00-2.285.731c-.914.731-1.188 1.827-1.279 2.558-.183 1.919.639 4.203 2.193 6.03 1.279 1.554 2.924 2.65 4.569 3.107 1.462.366 2.833.183 3.747-.548.914-.731 1.188-1.828 1.279-2.559.183-1.918-.639-4.203-2.193-6.03-1.279-1.553-2.924-2.65-4.569-3.106-.457-.092-1.005-.183-1.462-.183z" fill="#000"/><path d="M386.764 355.957c-.366 0-.731-.182-1.005-.548-1.737-2.558-4.295-6.67-6.763-12.152-.274-.64 0-1.279.64-1.553.548-.274 1.279 0 1.553.639 2.376 5.208 4.844 9.32 6.489 11.787.365.548.274 1.279-.274 1.645-.183.091-.457.182-.64.182zm-11.24-24.761c-.549 0-1.006-.365-1.188-.913-1.188-4.478-1.919-9.137-2.285-13.615-.091-.639.457-1.187 1.097-1.279.731 0 1.188.457 1.279 1.097.366 4.385 1.097 8.863 2.285 13.248a1.174 1.174 0 01-.823 1.462c-.091-.091-.274 0-.365 0zm-1.919-27.045c-.914-.183-1.28-.822-1.188-1.462 1.005-4.568 3.381-8.68 7.128-12.152.456-.457 1.279-.457 1.644.091.457.457.457 1.279-.091 1.645-3.381 3.106-5.574 6.853-6.397 10.964-.091.457-.548.914-1.096.914zm18.276-18.731c-.456 0-.913-.274-1.096-.731-.274-.639 0-1.279.64-1.553 3.838-1.645 8.316-3.015 13.25-4.112.64-.182 1.28.274 1.462.914.183.64-.274 1.279-.913 1.462-4.752 1.096-9.139 2.376-12.886 3.929-.091.091-.274.091-.457.091zm26.593-6.122c-.639 0-1.096-.456-1.188-1.096-.091-.64.366-1.279 1.097-1.279 6.306-.64 11.24-.731 13.068-.731h.731c.64 0 1.188.548 1.188 1.188a1.21 1.21 0 01-1.188 1.188h-.731c-1.828 0-6.671.091-12.885.73h-.092zM271.62 503.062c-2.194 0-8.773-.366-11.698-4.203-1.645-2.102-1.919-4.934-.822-8.224l20.561-46.598c.183-.274 2.376-3.929 6.763-4.751 3.198-.64 6.58.365 10.144 3.015l11.697 10.599c.457.457.548 1.188.091 1.645-.457.456-1.188.548-1.645.091l-11.697-10.508c-2.924-2.101-5.757-3.015-8.225-2.467-3.289.64-5.117 3.564-5.117 3.564l-20.47 46.324c-.823 2.467-.64 4.477.457 5.939 2.284 3.015 8.316 3.381 10.509 3.289h67.899a1.21 1.21 0 011.188 1.188 1.21 1.21 0 01-1.188 1.188h-67.808c0-.091-.274-.091-.639-.091zm-55.745-224.495c-.366 0-.823-.182-1.006-.548l-49.987-78.943c-.365-.548-.183-1.279.366-1.645.548-.365 1.279-.182 1.645.366l49.987 78.943c.365.548.183 1.279-.366 1.645-.182.091-.457.182-.639.182zm200.589-145.916c-25.862 0-49.348-11.33-70.092-33.898-.457-.457-.457-1.188.091-1.645.457-.457 1.188-.365 1.645.091 24.857 27.137 53.826 37.644 86.085 31.34.639-.091 1.279.274 1.37.914.092.639-.274 1.279-.913 1.37-6.123 1.188-12.246 1.828-18.186 1.828zm195.929 53.633c-4.021 0-8.682-2.284-12.063-6.395-2.467-3.016-3.93-6.488-4.204-9.868-.274-3.564.823-6.488 3.107-8.406 2.285-1.919 5.392-2.376 8.773-1.462 3.29.913 6.397 3.015 8.865 5.939 5.208 6.213 5.665 14.436 1.096 18.182-1.462 1.462-3.472 2.01-5.574 2.01zm-7.494-24.121c-1.645 0-3.016.457-4.112 1.37-1.645 1.371-2.468 3.655-2.285 6.396.183 2.924 1.554 5.939 3.656 8.498 4.386 5.208 10.783 7.126 14.347 4.111 3.564-2.924 2.924-9.594-1.462-14.893-2.193-2.558-4.844-4.477-7.676-5.208a11.334 11.334 0 00-2.468-.274z" fill="#000"/><path d="M600.421 162.254c-.365 0-.64-.091-.914-.365-25.13-27.868-53.186-38.284-85.719-31.979-.639.091-1.279-.274-1.37-.914-.092-.64.274-1.279.914-1.371 33.446-6.487 62.232 4.203 87.912 32.711.456.456.365 1.279-.092 1.644-.183.183-.457.274-.731.274zM516.53 537.325c-.183 0-.274 0-.457-.091-.64-.274-.914-.914-.639-1.554 6.122-14.801 20.927-23.938 38.838-23.938 17.18 0 31.985 8.863 38.473 23.208.274.639 0 1.279-.548 1.553-.549.274-1.28 0-1.554-.548-6.123-13.432-20.013-21.838-36.28-21.838-16.906 0-30.888 8.589-36.645 22.477-.274.457-.731.731-1.188.731z" fill="#000"/></svg>